
<svg width="20" height="22" viewBox="0 0 20 22" fill="none" xmlns="http://www.w3.org/2000/svg">
<path d="M16.25 20.375V15.1542C18.6066 12.971 19.3846 9.56687 18.2105 6.57673C17.0364 3.58659 14.1499 1.62139 10.9375 1.625C4.68417 1.625 3.58333 7.0375 1.25 12.875H3.75V15.375C3.75 16.7557 4.86929 17.875 6.25 17.875H7.5V20.375" stroke="#FF671D" stroke-width="1.5" stroke-linecap="round" stroke-linejoin="round"/>
<path fill-rule="evenodd" clip-rule="evenodd" d="M10.625 11C11.3154 11 11.875 10.4404 11.875 9.75C11.875 9.05964 11.3154 8.5 10.625 8.5C9.93464 8.5 9.375 9.05964 9.375 9.75C9.375 10.4404 9.93464 11 10.625 11Z" stroke="#FF671D" stroke-width="1.5" stroke-linecap="round" stroke-linejoin="round"/>
<path fill-rule="evenodd" clip-rule="evenodd" d="M9.56341 4.91706L9.19508 6.1254C9.06895 6.54241 8.64135 6.79045 8.21674 6.6929L6.99008 6.40873C6.51283 6.30117 6.02118 6.51703 5.77737 6.94117C5.53356 7.3653 5.59446 7.89878 5.92758 8.25706L6.78674 9.1829C7.0842 9.50276 7.0842 9.99803 6.78674 10.3179L5.92758 11.2437C5.59446 11.602 5.53356 12.1355 5.77737 12.5596C6.02118 12.9838 6.51283 13.1996 6.99008 13.0921L8.21674 12.8079C8.64135 12.7103 9.06895 12.9584 9.19508 13.3754L9.56341 14.5862C9.70397 15.0552 10.1355 15.3763 10.6251 15.3763C11.1146 15.3763 11.5462 15.0552 11.6867 14.5862L12.0551 13.3754C12.1812 12.9584 12.6088 12.7103 13.0334 12.8079L14.2601 13.0921C14.7373 13.1996 15.229 12.9838 15.4728 12.5596C15.7166 12.1355 15.6557 11.602 15.3226 11.2437L14.4634 10.3179C14.1659 9.99803 14.1659 9.50276 14.4634 9.1829L15.3226 8.25706C15.6557 7.89878 15.7166 7.3653 15.4728 6.94117C15.229 6.51703 14.7373 6.30117 14.2601 6.40873L13.0334 6.6929C12.6088 6.79045 12.1812 6.54241 12.0551 6.1254L11.6867 4.91706C11.5462 4.44813 11.1146 4.12695 10.6251 4.12695C10.1355 4.12695 9.70397 4.44813 9.56341 4.91706Z" stroke="#FF671D" stroke-width="1.5" stroke-linecap="round" stroke-linejoin="round"/>
</svg>
