
<svg width="20" height="20" viewBox="0 0 20 20" fill="none" xmlns="http://www.w3.org/2000/svg">
<path d="M16.0464 11.2022V8.01446C16.0464 6.59235 15.5402 5.21844 14.6243 4.1398C13.7084 3.05513 12.4369 2.33203 11.0328 2.09701V1.00633C11.0328 0.741186 10.9244 0.488102 10.7376 0.295273C10.5508 0.10847 10.2917 0 10.0265 0C9.76138 0 9.50226 0.10847 9.31546 0.295273C9.12865 0.482076 9.02019 0.741186 9.02019 1.00633V2.09701C7.62218 2.33203 6.34468 3.06116 5.42874 4.1398C4.51281 5.22446 4.00663 6.59837 4.00663 8.01446V11.2022C3.42212 11.407 2.91594 11.7927 2.55438 12.2989C2.19283 12.8051 2 13.4077 2 14.0283V16.035C2 16.3001 2.10847 16.5532 2.29527 16.746C2.48208 16.9328 2.74119 17.0413 3.00633 17.0413H6.15788C6.38687 17.8909 6.89304 18.6381 7.59204 19.1745C8.29105 19.7108 9.14673 20 10.0265 20C10.9063 20 11.762 19.7108 12.461 19.1745C13.16 18.6381 13.6662 17.8909 13.8952 17.0413H17.0467C17.3118 17.0413 17.571 16.9328 17.7578 16.746C17.9446 16.5592 18.053 16.3001 18.053 16.035V14.0283C18.053 13.4077 17.8602 12.8051 17.4986 12.2989C17.1371 11.7927 16.6309 11.407 16.0464 11.2022ZM6.01326 8.01446C6.01326 6.9539 6.43507 5.9295 7.18831 5.18229C7.94155 4.42905 8.95993 4.00724 10.0265 4.00724C11.0931 4.00724 12.1115 4.42905 12.8647 5.18229C13.618 5.93553 14.0398 6.9539 14.0398 8.01446V11.0214H6.01928V8.01446H6.01326ZM10.0265 18.0356C9.67701 18.0356 9.33353 17.9391 9.03224 17.7644C8.73094 17.5896 8.47786 17.3365 8.30311 17.0353H11.756C11.5812 17.3365 11.3281 17.5896 11.0268 17.7644C10.7255 17.9391 10.382 18.0356 10.0325 18.0356H10.0265ZM16.0464 15.0286H4.01266V14.0283C4.01266 13.7632 4.12112 13.5101 4.30792 13.3173C4.49473 13.1305 4.75385 13.022 5.01899 13.022H15.0461C15.3112 13.022 15.5704 13.1305 15.7572 13.3173C15.944 13.5041 16.0524 13.7632 16.0524 14.0283V15.0286H16.0464Z" fill="#FF671D"/>
</svg>
