
<svg width="20" height="20" viewBox="0 0 20 20" fill="none" xmlns="http://www.w3.org/2000/svg">
<path d="M18.5256 18.6715L12.0727 1.161C12.0405 1.0644 11.9439 1 11.8473 1H7.71925C7.61621 1 7.52599 1.0644 7.49379 1.161L1.01511 18.6651C0.957154 18.8261 1.07306 18.9936 1.2405 18.9936H5.10455C5.20759 18.9936 5.30418 18.9227 5.33638 18.8261L6.56001 14.9878C6.59221 14.8848 6.68236 14.8204 6.79184 14.8204H12.7554C12.8584 14.8204 12.955 14.8912 12.9872 14.9878L14.2366 18.8326C14.2688 18.9356 14.359 19 14.4684 19H18.3067C18.4741 19 18.59 18.8326 18.5321 18.6715H18.5256ZM8.10564 11.3041C8.10564 11.4973 7.95105 11.6519 7.75785 11.6519H7.18468C6.99147 11.6519 6.83052 11.4973 6.83052 11.3041V7.43363C6.83052 7.24042 6.98503 7.07942 7.18468 7.07942H7.75785C7.95105 7.07942 8.10564 7.23398 8.10564 7.43363V11.3041ZM10.4047 11.3041C10.4047 11.4973 10.2502 11.6519 10.0506 11.6519H9.47738C9.28418 11.6519 9.12314 11.4973 9.12314 11.3041V4.7288C9.12314 4.5356 9.27774 4.37459 9.47738 4.37459H10.0506C10.2438 4.37459 10.4047 4.52916 10.4047 4.7288V11.3041ZM12.7039 11.3041C12.7039 11.4973 12.5493 11.6519 12.3561 11.6519H11.7829C11.5897 11.6519 11.4351 11.4973 11.4351 11.3041V8.6508C11.4351 8.4576 11.5897 8.30304 11.7829 8.30304H12.3561C12.5493 8.30304 12.7039 8.4576 12.7039 8.6508V11.3041Z" fill="#FF671D"/>
</svg>
