
<svg width="20" height="20" viewBox="0 0 20 20" fill="none" xmlns="http://www.w3.org/2000/svg">
<path fill-rule="evenodd" clip-rule="evenodd" d="M9.33657 4.98559C8.34355 5.5632 7.62214 6.59249 7.62214 8.05977V9.22773L6.55587 8.7054C5.16378 8.02346 3.56211 8.57176 2.80981 9.86153C2.36037 10.6321 2.33662 11.8082 2.89049 12.8031C3.41981 13.7539 4.49271 14.5563 6.2959 14.5563H15.4316C16.6222 14.5563 17.3925 14.234 17.8546 13.8345C18.3149 13.4367 18.5264 12.9154 18.5264 12.3908C18.5264 11.8476 18.3002 11.2412 17.8579 10.8079C17.4358 10.3945 16.7805 10.1018 15.8177 10.2197L14.7803 10.3468L15.0071 9.34683C15.2772 8.15596 15.1932 7.17067 14.8363 6.4133C14.4856 5.66885 13.8364 5.06852 12.8152 4.69336C11.6655 4.27096 10.3518 4.39507 9.33657 4.98559ZM8.5844 3.74419C9.98393 2.93014 11.7646 2.76553 13.3326 3.34161C14.6692 3.83265 15.6408 4.67598 16.1742 5.80831C16.5882 6.68696 16.7162 7.69204 16.5977 8.76453C17.548 8.8425 18.3261 9.22505 18.8998 9.78699C19.6365 10.5087 20 11.4903 20 12.3908C20 13.3098 19.6218 14.2322 18.8295 14.9171C18.0389 15.6005 16.8934 16 15.4316 16H6.2959C3.97304 16 2.39362 14.9256 1.59684 13.4943C0.824612 12.1072 0.800984 10.3959 1.53042 9.14528C2.47429 7.52706 4.37161 6.64995 6.23662 7.06868C6.51191 5.56585 7.40876 4.42797 8.5844 3.74419Z" fill="#FF671D"/>
</svg>
