
<svg width="20" height="20" viewBox="0 0 20 20" fill="none" xmlns="http://www.w3.org/2000/svg">
<path d="M18.4397 8.81177C18.4175 8.46751 18.3509 8.07884 18.2454 7.67351C18.1399 7.24597 17.9622 6.79067 17.729 6.2965C17.4903 5.82454 17.1682 5.30816 16.7574 4.81399C16.6074 4.61965 16.4131 4.42532 16.2354 4.25319C16.5186 3.13715 15.8912 2.17102 15.8912 2.17102C14.814 2.10439 14.1199 2.51527 13.8645 2.68739C13.8201 2.66518 13.7757 2.64297 13.7368 2.64297C13.5647 2.55413 13.3703 2.49306 13.176 2.44864C12.9817 2.40422 12.7873 2.34314 12.5708 2.27651C12.3764 2.23209 12.1599 2.18767 11.9434 2.1488C11.8989 2.1488 11.8767 2.1266 11.8379 2.1266C11.3604 0.621878 9.99999 0 9.99999 0C8.48972 0.949472 8.20655 2.28207 8.20655 2.28207C8.20655 2.28207 8.20655 2.30428 8.18434 2.37091L7.92337 2.43753C7.81232 2.48195 7.68462 2.52637 7.57912 2.56524C7.46807 2.60966 7.34036 2.65408 7.23487 2.69294C7.01832 2.78178 6.77957 2.90949 6.56302 3.01499C6.34648 3.14269 6.12993 3.27595 5.93559 3.40366C5.91338 3.38145 5.89116 3.38145 5.89116 3.38145C3.79788 2.58745 1.94336 3.55358 1.94336 3.55358C1.81566 5.76901 2.80399 7.16824 2.99833 7.42365C2.95391 7.55136 2.90948 7.70127 2.87062 7.82898C2.7207 8.32315 2.60965 8.83953 2.52637 9.37812C2.50416 9.44475 2.50415 9.52803 2.50415 9.61687C0.582998 10.5608 0 12.4986 0 12.4986C1.61577 14.3476 3.47583 14.4531 3.47583 14.4531C3.71459 14.8806 3.99222 15.2693 4.29205 15.658C4.41976 15.8079 4.55303 15.9578 4.70294 16.1077C4.11993 17.7846 4.79178 19.1616 4.79178 19.1616C6.58523 19.2282 7.7679 18.3898 8.00665 18.1899C8.17878 18.2565 8.37312 18.3009 8.54524 18.362C9.08383 18.5119 9.66684 18.5786 10.2276 18.623H10.9384C11.7768 19.8279 13.2704 20 13.2704 20C14.3254 18.8784 14.392 17.7846 14.392 17.5458V17.4403C14.6085 17.2904 14.8251 17.1183 15.0194 16.9461C15.4525 16.5575 15.819 16.1299 16.1188 15.658C16.141 15.6135 16.1855 15.5691 16.2077 15.5303C17.3959 15.5969 18.2343 14.7973 18.2343 14.7973C18.04 13.548 17.3293 12.9484 17.1793 12.8429H17.1349C17.1349 12.8429 17.1127 12.8429 17.1127 12.8207C17.1127 12.754 17.1349 12.6707 17.1349 12.6041C17.1349 12.4764 17.1571 12.3431 17.1571 12.1988V11.6824C17.1571 11.638 17.1571 11.6158 17.1349 11.5769L17.1127 11.4714L17.0905 11.3659C17.0683 11.2382 17.0461 11.0883 17.0017 10.955C16.874 10.4164 16.6574 9.92227 16.3964 9.45031C16.1133 9.00056 15.769 8.58967 15.3859 8.24541C14.9972 7.90116 14.5641 7.62354 14.1144 7.4292C13.6591 7.23486 13.1871 7.08495 12.7096 7.04053C12.4708 7.01832 12.2321 6.99611 11.9989 6.99611H11.8878C11.8878 6.99611 11.8434 6.99611 11.8656 6.99611H11.6269C11.4992 6.99611 11.3881 7.01832 11.2604 7.04053C10.7829 7.12937 10.3331 7.30149 9.94448 7.5347C9.5558 7.77345 9.21154 8.07329 8.92836 8.39533C8.64519 8.71738 8.4342 9.10605 8.27874 9.47251C8.12882 9.83898 8.03998 10.2443 8.01777 10.633V11.1938C8.03998 11.3881 8.06218 11.5825 8.12881 11.749C8.2343 12.1155 8.38978 12.4375 8.60633 12.7207C8.82288 12.9983 9.06163 13.2149 9.31704 13.4092C9.57801 13.5813 9.85562 13.709 10.1388 13.7979C10.422 13.8867 10.6774 13.9034 10.955 13.9034H11.3215C11.3659 13.9034 11.3881 13.8812 11.4103 13.8812C11.4325 13.8812 11.477 13.859 11.4992 13.859C11.5658 13.8368 11.6102 13.8368 11.6713 13.8145L11.9933 13.6868C12.1044 13.6424 12.1877 13.5813 12.2765 13.5147C12.2987 13.4925 12.3209 13.4703 12.3431 13.4703C12.432 13.4037 12.4542 13.276 12.3876 13.1871C12.3209 13.0983 12.2154 13.0816 12.1266 13.1427C12.1044 13.1427 12.0822 13.1649 12.06 13.1871C11.9933 13.2315 11.91 13.2537 11.8212 13.2926L11.5602 13.3592C11.5158 13.3592 11.4714 13.3814 11.4325 13.3814H11.0217C10.8273 13.3592 10.6108 13.2926 10.4164 13.2093C10.2221 13.1205 10.0278 12.9928 9.85563 12.8429C9.68351 12.6929 9.52804 12.4986 9.42254 12.3043C9.31705 12.1099 9.22819 11.8767 9.18377 11.6158C9.16156 11.4881 9.16158 11.3548 9.16158 11.2493V11.055C9.16158 10.9883 9.18377 10.9273 9.18377 10.8606C9.27261 10.322 9.55025 9.80566 9.96113 9.42254C10.0666 9.31705 10.1777 9.22821 10.2832 9.16158C10.3942 9.07274 10.5219 9.01166 10.6496 8.94503C10.7773 8.8784 10.9106 8.83953 11.0605 8.79511C11.2104 8.75069 11.3437 8.72848 11.4936 8.72848H11.9489C12.0988 8.75069 12.271 8.7729 12.4264 8.79511C12.7318 8.86174 13.0316 8.96723 13.3315 9.13936C13.8923 9.4614 14.3698 9.93337 14.6696 10.5164C14.8195 10.8162 14.9306 11.116 14.975 11.4436C14.9972 11.5325 14.9972 11.6158 14.9972 11.6824V12.1988C14.9972 12.2876 14.975 12.3709 14.975 12.4542C14.9528 12.543 14.9528 12.6263 14.9306 12.7152L14.864 12.9761C14.8195 13.1482 14.7529 13.3204 14.6918 13.4925C14.5641 13.8145 14.3864 14.1366 14.1755 14.442C13.7424 15.0194 13.1593 15.4969 12.5153 15.7968C12.1932 15.9467 11.8268 16.0577 11.4825 16.1188C11.3104 16.141 11.116 16.1632 10.9439 16.1632H10.6607C10.5497 16.1632 10.4664 16.1632 10.3776 16.141C9.9889 16.1188 9.60022 16.0522 9.23376 15.9467C8.8673 15.8412 8.50083 15.6913 8.15658 15.5192C7.46807 15.1527 6.86285 14.6585 6.38534 14.0589C6.14658 13.759 5.93004 13.437 5.75791 13.0872C5.58578 12.7429 5.45253 12.3987 5.34703 12.0322C5.24153 11.6657 5.1749 11.2993 5.15269 10.9106V10.3109C5.15269 10.1166 5.17489 9.94447 5.1971 9.75569C5.21931 9.56135 5.26374 9.36702 5.28595 9.17823C5.30816 8.98945 5.37479 8.78956 5.41366 8.61744C5.51916 8.25097 5.6524 7.8845 5.80232 7.56246C6.12992 6.89616 6.53526 6.2965 7.01277 5.81899C7.14048 5.69128 7.27373 5.58023 7.40144 5.47474C7.52914 5.36924 7.66241 5.25818 7.81233 5.1749C7.96225 5.08606 8.0955 5.00277 8.24542 4.91393C8.31205 4.86951 8.39533 4.82509 8.46196 4.80288C8.50638 4.78067 8.5508 4.75846 8.56746 4.75846C8.58412 4.75846 8.6563 4.71404 8.67851 4.71404C8.82843 4.64741 9.00055 4.58634 9.15602 4.54192C9.20044 4.51971 9.24486 4.51971 9.28373 4.4975C9.32815 4.47529 9.37256 4.47529 9.41143 4.45308L9.67239 4.38645C9.71681 4.38645 9.76124 4.36424 9.80011 4.36424C9.83897 4.36424 9.88895 4.34203 9.92782 4.34203C9.96669 4.34203 10.0166 4.31982 10.0555 4.31982H10.1832C10.2276 4.31982 10.2721 4.29761 10.3109 4.29761C10.3498 4.29761 10.3998 4.29761 10.4609 4.2754C10.5053 4.2754 10.5719 4.25319 10.6108 4.25319H11.6879C12.01 4.2754 12.3376 4.29761 12.6374 4.35868C13.2426 4.46418 13.8256 4.65852 14.342 4.91393C14.8584 5.16934 15.3359 5.47473 15.7468 5.81899L15.8134 5.88561L15.8801 5.95225C15.9245 5.99667 15.9689 6.04109 16.03 6.07995C16.0911 6.12437 16.1188 6.16879 16.1577 6.20766L16.2854 6.33537C16.4575 6.52971 16.6074 6.70183 16.7629 6.89617C17.0461 7.26263 17.2793 7.6513 17.4736 7.99555C17.4958 8.01776 17.4958 8.03998 17.518 8.06219C17.5402 8.0844 17.5403 8.10661 17.5625 8.12882L17.6291 8.25652L17.6957 8.38422C17.7179 8.42864 17.7401 8.47307 17.7401 8.51194C17.8068 8.68406 17.8678 8.83398 17.9123 8.98389C18.0011 9.22265 18.0622 9.43364 18.1066 9.62798C18.1288 9.69461 18.1954 9.75569 18.2787 9.73348C18.3676 9.73348 18.4286 9.66685 18.4286 9.58356C18.4731 9.32815 18.4509 9.08939 18.4286 8.81177H18.4397Z" fill="#FF671D"/>
</svg>
