
<svg width="20" height="20" viewBox="0 0 20 20" fill="none" xmlns="http://www.w3.org/2000/svg">
<path d="M2.59859 4.08438C2.86762 4.35341 3.30784 4.35341 3.57687 4.08438C3.8459 3.81535 3.8459 3.37511 3.57687 3.09997L2.37849 1.89544C2.10946 1.62641 1.66924 1.62641 1.40021 1.89544C1.13118 2.16447 1.13118 2.60471 1.40021 2.87985L2.59859 4.08438ZM9.69121 2.58636C10.0703 2.58636 10.3821 2.27453 10.3821 1.89544V0.690919C10.3821 0.305715 10.0703 0 9.69121 0C9.31212 0 9.00029 0.31183 9.00029 0.690919V1.89544C9.00029 2.28065 9.31212 2.58636 9.69121 2.58636ZM16.7838 4.08438L17.9823 2.87985C18.2513 2.61082 18.2513 2.17059 17.9823 1.89544C17.7133 1.62641 17.273 1.62641 17.004 1.89544L15.8055 3.09997C15.5365 3.369 15.5365 3.80923 15.8055 4.08438C16.0746 4.35952 16.5148 4.35341 16.7838 4.08438ZM15.6099 14.9862L14.6194 6.93366C14.546 6.34668 14.2403 5.80862 13.7511 5.41119C13.2681 5.01376 12.6383 4.79976 11.9841 4.79364H7.41057C6.75023 4.79364 6.1143 5.00764 5.61904 5.39896C5.12378 5.79028 4.81198 6.34057 4.73861 6.92754L3.74809 14.9924C3.11832 15.1024 2.53134 15.3959 2.06665 15.8484C1.46744 16.4292 1.12502 17.2241 1.12502 18.0556C1.12502 18.5815 1.33907 19.0767 1.71204 19.4375C2.08502 19.7982 2.58633 20 3.09994 20H16.307C16.8206 20 17.3219 19.8043 17.6949 19.4375C18.0678 19.0767 18.2819 18.5815 18.2819 18.0556C18.2819 17.2241 17.9395 16.4292 17.3403 15.8484C16.8633 15.3837 16.2519 15.0902 15.6038 14.9862H15.6099ZM6.6218 10.6267C6.9642 10.3699 7.44725 10.4372 7.70405 10.7796L8.82302 12.2715L11.2076 8.02812C11.4154 7.65515 11.8924 7.52063 12.2654 7.73464C12.6384 7.94864 12.7729 8.41944 12.5589 8.79242L10.0398 13.2681C9.9236 13.4699 9.7768 13.635 9.59948 13.7634C9.40994 13.8979 9.18987 13.9774 8.96364 13.9957C8.92084 13.9957 8.87187 14.0018 8.82907 14.0018C8.63952 14.0018 8.45615 13.959 8.27884 13.8734C8.07706 13.7756 7.89969 13.6289 7.76518 13.4393L6.46282 11.709C6.20602 11.3666 6.27328 10.8774 6.61568 10.6206L6.6218 10.6267ZM16.6188 18.3247C16.5393 18.4042 16.4293 18.447 16.307 18.447H3.09994C2.97765 18.447 2.86766 18.398 2.78817 18.3247C2.70869 18.2513 2.67196 18.1535 2.67196 18.0618C2.67196 17.6582 2.83706 17.2669 3.13666 16.9734C3.44238 16.6799 3.85817 16.5087 4.2984 16.5087H15.1024C15.5426 16.5087 15.9584 16.6799 16.2641 16.9734C16.5698 17.2669 16.7288 17.6582 16.7288 18.0618C16.7288 18.1596 16.6922 18.2513 16.6127 18.3247H16.6188ZM2.58023 8.40722C2.58023 8.02201 2.2684 7.71629 1.88931 7.71629H0.690923C0.311834 7.71629 0 8.02813 0 8.40722C0 8.7863 0.311834 9.09813 0.690923 9.09813H1.88931C2.2684 9.09813 2.58023 8.7863 2.58023 8.40722ZM18.6976 7.71629H17.4992C17.1201 7.71629 16.8083 8.02813 16.8083 8.40722C16.8083 8.7863 17.1201 9.09813 17.4992 9.09813H18.6976C19.0767 9.09813 19.3885 8.7863 19.3885 8.40722C19.3885 8.02813 19.0767 7.71629 18.6976 7.71629Z" fill="#FF671D"/>
</svg>
