
<svg width="20" height="20" viewBox="0 0 21 21" fill="none" xmlns="http://www.w3.org/2000/svg">
<path fill-rule="evenodd" clip-rule="evenodd" d="M12.1176 15.6697C15.5299 14.2195 17.1205 10.2777 15.6703 6.86538C14.2201 3.45308 10.2783 1.86248 6.86601 3.31267C3.45371 4.76286 1.86311 8.70469 3.3133 12.117C4.7635 15.5293 8.70532 17.1199 12.1176 15.6697Z" stroke="#FF671D" stroke-width="1.5" stroke-linecap="round" stroke-linejoin="round"/>
<path d="M14.2383 14.2373L19.4449 19.4447" stroke="#FF671D" stroke-width="1.5" stroke-linecap="round" stroke-linejoin="round"/>
<path fill-rule="evenodd" clip-rule="evenodd" d="M9.49262 12.2684C11.0267 12.2684 12.2704 11.0248 12.2704 9.49067C12.2704 7.95654 11.0267 6.71289 9.49262 6.71289C7.9585 6.71289 6.71484 7.95654 6.71484 9.49067C6.71484 11.0248 7.9585 12.2684 9.49262 12.2684Z" stroke="#FF671D" stroke-width="1.5" stroke-linecap="round" stroke-linejoin="round"/>
<path d="M9.49219 6.71322V5.37988" stroke="#FF671D" stroke-width="1.5" stroke-linecap="round" stroke-linejoin="round"/>
<path d="M9.49219 13.6019V12.2686" stroke="#FF671D" stroke-width="1.5" stroke-linecap="round" stroke-linejoin="round"/>
<path d="M12.2695 9.49121H13.6029" stroke="#FF671D" stroke-width="1.5" stroke-linecap="round" stroke-linejoin="round"/>
<path d="M5.38086 9.49121H6.71419" stroke="#FF671D" stroke-width="1.5" stroke-linecap="round" stroke-linejoin="round"/>
<path d="M6.86914 6.55859L7.6884 7.37859" stroke="#FF671D" stroke-width="1.5" stroke-linecap="round" stroke-linejoin="round"/>
<path d="M12.1149 6.55859L11.2949 7.37859" stroke="#FF671D" stroke-width="1.5" stroke-linecap="round" stroke-linejoin="round"/>
<path d="M6.86914 12.4238L7.6884 11.6045" stroke="#FF671D" stroke-width="1.5" stroke-linecap="round" stroke-linejoin="round"/>
<path d="M12.1149 12.4238L11.2949 11.6045" stroke="#FF671D" stroke-width="1.5" stroke-linecap="round" stroke-linejoin="round"/>
<path d="M9.4911 8.93555C9.79793 8.93555 10.0467 9.18428 10.0467 9.4911C10.0467 9.79793 9.79793 10.0467 9.4911 10.0467C9.18428 10.0467 8.93555 9.79793 8.93555 9.4911C8.93555 9.18428 9.18428 8.93555 9.4911 8.93555" stroke="#FF671D" stroke-width="1.5" stroke-linecap="round" stroke-linejoin="round"/>
</svg>
