
<svg width="20" height="20" viewBox="0 0 20 20" fill="none" xmlns="http://www.w3.org/2000/svg">
<path d="M15.8983 0L10.6684 8.15781L6.65797 5.2103L0 19.4131H20L15.8983 0ZM9.35768 16.3026L8.19041 14.6528V16.3026H7.1014V10.1598L8.19041 11.0466V14.1506L9.28594 12.6051L9.64461 12.1356L10.4532 12.6964L9.23378 14.3854L10.6032 16.296H9.35768V16.3026ZM14.6006 14.4962C14.6006 14.744 14.5549 14.9853 14.4571 15.2136C14.3593 15.4418 14.2159 15.6439 14.0333 15.807C13.6746 16.1526 13.1986 16.3417 12.703 16.3417H12.6182C12.1291 16.3417 11.6531 16.1526 11.301 15.8135C11.1184 15.6505 10.9749 15.4483 10.8836 15.2266C10.7858 15.0049 10.7401 14.7636 10.7401 14.5158C10.7401 14.3137 10.7793 14.105 10.8575 13.9159C10.9227 13.7333 11.0075 13.5637 11.0988 13.3942C11.1901 13.2377 11.3335 13.0095 11.5096 12.7486L12.5269 11.1966L12.9247 10.6097L13.7659 11.1966L12.7095 12.7682C12.7616 12.7486 12.8203 12.7421 12.8725 12.7421H12.9051C13.3355 12.7551 13.7463 12.9312 14.0463 13.2312C14.2289 13.3877 14.3723 13.5833 14.4636 13.7985C14.5615 14.0202 14.6006 14.255 14.5941 14.4897L14.6006 14.4962Z" fill="#FF671D"/>
<path d="M13.2431 13.948C13.1714 13.8697 13.0801 13.8111 12.9823 13.7654C12.8845 13.7263 12.7801 13.7002 12.6758 13.7002H12.6693C12.4541 13.7002 12.2519 13.785 12.1019 13.935C11.952 14.0849 11.8672 14.2871 11.8672 14.5023C11.8672 14.7175 11.952 14.9196 12.1019 15.0696C12.2519 15.2196 12.4541 15.3044 12.6693 15.3044C12.8845 15.3044 13.0866 15.2196 13.2431 15.0696C13.3931 14.9196 13.4844 14.7175 13.4844 14.5023C13.4844 14.3979 13.4648 14.2936 13.4192 14.1958C13.3801 14.098 13.3149 14.0132 13.2366 13.9415L13.2431 13.948Z" fill="#FF671D"/>
</svg>
