<svg xmlns="http://www.w3.org/2000/svg" width="20" height="20" viewBox="0 0 20 20" fill="none">
<path d="M5.32388 19.7359L5.09139 18.165L3.47656 18.385L3.73418 19.9998L5.32388 19.7359Z" fill="#FF671D"/>
<path d="M17.8777 15.262L17.6201 13.666L10.6016 14.7468L10.834 16.3365L17.8777 15.262Z" fill="#FF671D"/>
<path d="M8.33965 16.7269L9.92935 16.4881L9.69686 14.8984L8.08203 15.1561L8.33965 16.7269Z" fill="#FF671D"/>
<path d="M7.84341 19.3528L7.58579 17.7568L5.99609 18.0145L6.22858 19.6104L7.84341 19.3528Z" fill="#FF671D"/>
<path d="M3.10547 15.909L3.34424 17.4987L4.94022 17.2662L4.70145 15.6514L3.10547 15.909Z" fill="#FF671D"/>
<path d="M10.9648 17.2421L11.2225 18.857L18.2599 17.7574L18.0022 16.1865L10.9648 17.2421Z" fill="#FF671D"/>
<path d="M8.729 19.2213L10.3187 18.9889L10.0611 17.374L8.49023 17.6316L8.729 19.2213Z" fill="#FF671D"/>
<path d="M5.60547 15.52L5.86309 17.1349L7.43394 16.8772L7.19517 15.2812L5.60547 15.52Z" fill="#FF671D"/>
<path d="M3.64531 14.9176L1.68489 2.13086L1 2.26281L2.97927 15.0055L3.64531 14.9176Z" fill="#FF671D"/>
<path d="M4.56955 14.7472L2.46461 1.05566L1.77344 1.18133L3.90351 14.8728L4.56955 14.7472Z" fill="#FF671D"/>
<path d="M6.16439 14.5272L3.9275 0L3.23633 0.106817L5.45437 14.6152L6.16439 14.5272Z" fill="#FF671D"/>
<path d="M7.0699 14.3764L5.02151 1.14355L4.35547 1.25037L6.40386 14.4895L7.0699 14.3764Z" fill="#FF671D"/>
<path d="M8.63972 14.1432L6.8301 2.36816L6.16406 2.47498L7.94855 14.2501L8.63972 14.1432Z" fill="#FF671D"/>
<path d="M9.56515 13.9928L7.67385 1.78418L7.00781 1.891L8.89911 14.0745L9.56515 13.9928Z" fill="#FF671D"/>
</svg>