
<svg width="20" height="20" viewBox="0 0 20 20" fill="none" xmlns="http://www.w3.org/2000/svg">
<path d="M7.2099 12.4136H12.7902C13.3642 12.4136 13.7222 11.7901 13.4321 11.2963L10.642 6.46296C10.3519 5.96913 9.64198 5.96913 9.35186 6.46296L6.56173 11.2963C6.27778 11.7901 6.63582 12.4136 7.20373 12.4136H7.2099ZM10 0C4.48152 0 0 4.47531 0 10C0 15.5247 4.48152 20 10 20C15.5186 20 20 15.5185 20 10C20 4.48149 15.5186 0 10 0ZM10.0248 4.57407C13.0186 4.58642 15.4383 7.03087 15.426 10.0247C15.4136 13.0247 12.9691 15.4383 9.97532 15.4259C6.97532 15.4136 4.56175 12.9691 4.57409 9.9753C4.58644 6.98148 7.03093 4.56173 10.0248 4.57407ZM2.88892 13.0741C2.82719 13.0926 2.77161 13.1049 2.70988 13.1049C2.46914 13.1049 2.24074 12.9506 2.16049 12.7037C1.88889 11.8642 1.75314 10.963 1.75314 10.0247C1.75314 9.50618 1.79632 8.95679 1.88274 8.41358C2.53707 5.08642 5.09265 2.51852 8.39512 1.85185C8.70993 1.79012 9.01856 1.98766 9.08029 2.30247C9.14202 2.61729 8.9445 2.92594 8.62969 2.98767C5.79018 3.56174 3.58644 5.77161 3.03088 8.61729C2.95681 9.08025 2.91981 9.56789 2.91981 10.0309C2.91981 10.8457 3.03706 11.6296 3.27163 12.3457C3.3704 12.6481 3.20374 12.9753 2.8951 13.0741H2.88892ZM16.321 15.4691C14.7963 17.2839 12.605 18.2778 10.1482 18.2778C7.69139 18.2778 5.35809 17.2654 3.77785 15.5062C3.5618 15.2654 3.58646 14.9012 3.82102 14.6852C4.06176 14.4691 4.42593 14.4938 4.64198 14.7284C5.98766 16.2222 8.04324 17.1173 10.1482 17.1173C12.2531 17.1173 14.1358 16.2654 15.4383 14.7161C15.642 14.4753 16.0062 14.4383 16.2531 14.6481C16.5 14.8518 16.5309 15.216 16.321 15.463V15.4691ZM17.8889 12.6667C17.8087 12.9074 17.5803 13.0556 17.3395 13.0556C17.2778 13.0556 17.2099 13.0432 17.1482 13.0247C16.8457 12.9197 16.6852 12.5926 16.7902 12.284C16.8951 11.9877 16.9815 11.679 17.0617 11.358C17.1481 10.9198 17.1976 10.4506 17.1976 9.98766C17.1976 6.58643 14.7716 3.6358 11.4259 2.97531C11.1111 2.91358 10.8951 2.61111 10.9568 2.2963C11.0123 1.98148 11.3025 1.77778 11.6173 1.83333C11.6173 1.83333 11.6481 1.83334 11.6543 1.83951C15.537 2.60494 18.3581 6.03087 18.3581 9.98766C18.3581 10.5247 18.3025 11.0741 18.1976 11.6049C18.1112 11.9815 18.0062 12.3333 17.8889 12.6667Z" fill="#FF671D"/>
</svg>
