
<svg width="22" height="22" viewBox="0 0 22 22" fill="none" xmlns="http://www.w3.org/2000/svg">
<path fill-rule="evenodd" clip-rule="evenodd" d="M17.2502 14.1251L20.0093 11.366C20.4973 10.8779 20.4973 10.0866 20.0093 9.59848L18.2502 7.84348C17.7027 9.14247 16.3534 9.91414 14.9562 9.72729C13.559 9.54043 12.4599 8.4413 12.273 7.04411C12.0862 5.64692 12.8578 4.29759 14.1568 3.75015L12.4018 1.99098C11.9137 1.50301 11.1224 1.50301 10.6343 1.99098L7.87515 4.75015C7.87515 3.02426 6.47604 1.62515 4.75015 1.62515C3.02426 1.62515 1.62515 3.02426 1.62515 4.75015C1.62515 6.47604 3.02426 7.87515 4.75015 7.87515L1.99098 10.6343C1.50301 11.1224 1.50301 11.9137 1.99098 12.4018L3.75015 14.1568C4.29759 12.8578 5.64692 12.0862 7.04411 12.273C8.4413 12.4599 9.54043 13.559 9.72729 14.9562C9.91415 16.3534 9.14247 17.7027 7.84348 18.2501L9.59848 20.006C10.0866 20.494 10.8779 20.494 11.366 20.006L14.1252 17.2501C14.1252 18.976 15.5243 20.3751 17.2502 20.3751C18.976 20.3751 20.3752 18.976 20.3752 17.2501C20.3752 15.5243 18.976 14.1251 17.2502 14.1251Z" stroke="#FF671D" stroke-width="1.5" stroke-linecap="round" stroke-linejoin="round"/>
</svg>
