
<svg width="20" height="20" viewBox="0 0 20 20" fill="none" xmlns="http://www.w3.org/2000/svg">
<path d="M14.7984 7.70546L12.7965 4.87456L10.6694 7.52299L10.7945 6.92866C11.295 4.52005 10.7737 2.01239 9.35561 0L3.32363 8.44055C2.39563 9.76998 1.88993 11.4226 2.02027 13.1952C2.28094 16.8133 5.22136 19.7329 8.83948 19.9831C10.4869 20.0926 12.0249 19.6651 13.3021 18.8518L11.7433 16.7351C10.8571 17.2513 10.0855 17.392 9.36082 17.3816C6.74889 17.3816 4.62698 15.2597 4.62698 12.6478C4.62698 10.0359 6.74889 7.914 9.36082 7.914C11.9728 7.914 14.0946 10.0359 14.0946 12.6478C14.0946 13.8469 13.7714 14.8374 12.7443 15.974L14.3032 18.0906C15.7838 16.7456 16.717 14.8062 16.717 12.6478C16.717 10.7449 15.9923 9.00881 14.8036 7.70546H14.7984ZM9.35561 9.17565C7.43706 9.17565 5.87822 10.7345 5.87822 12.653C5.87822 14.5716 7.43706 16.1304 9.35561 16.1304C11.2741 16.1304 12.833 14.5716 12.833 12.653C12.833 10.7345 11.2741 9.17565 9.35561 9.17565ZM9.35561 10.2288C8.02097 10.2288 6.93135 11.3184 6.93135 12.653H6.483C6.483 11.0681 7.77072 9.78041 9.35561 9.78041V10.2288Z" fill="#FF671D"/>
</svg>
