
<svg width="20" height="15" viewBox="0 0 185 138" fill="none" xmlns="http://www.w3.org/2000/svg">
<path fill-rule="evenodd" clip-rule="evenodd" d="M82.2384 36.3465C89.3145 25.4445 86.2131 10.8717 75.3118 3.79602C64.4106 -3.27954 49.8377 -0.178442 42.7616 10.7235C35.6863 21.6243 38.7876 36.1973 49.6888 43.2729C60.5901 50.3485 75.1631 47.2473 82.2384 36.3465ZM161.889 34.5066C185.041 49.5339 191.827 80.1762 177.046 102.949C162.265 125.721 131.515 132 108.363 116.973C85.2114 101.946 78.4249 71.3034 93.2058 48.5307C107.986 25.7584 138.737 19.4799 161.889 34.5066ZM59.4758 66.5339C77.3147 78.1124 82.3895 101.959 70.811 119.798C59.2327 137.636 35.3858 142.712 17.5469 131.133C-0.291877 119.554 -5.36656 95.7075 6.21174 77.869C17.7903 60.0302 41.637 54.9554 59.4758 66.5339Z" fill="#FF671D"/>
</svg>
