
<svg width="20" height="20" viewBox="0 0 20 20" fill="none" xmlns="http://www.w3.org/2000/svg">
<path d="M13.6493 9.71003C13.7301 10.7418 13.3772 11.8018 12.5907 12.5897C11.8997 13.2807 10.9798 13.6618 10.0019 13.6618C9.02406 13.6618 8.10412 13.2807 7.41316 12.5897C5.98545 11.162 5.98545 8.83859 7.41316 7.41087C8.10412 6.71991 9.02406 6.33874 10.0019 6.33874C10.0989 6.33874 10.1945 6.34278 10.2888 6.34951L11.6317 5.00665C11.1023 4.83425 10.5528 4.74805 10.0019 4.74805C8.6577 4.74805 7.31349 5.26122 6.2885 6.28621C4.23717 8.33754 4.23717 11.6617 6.2885 13.713C7.31349 14.738 8.6577 15.2512 10.0019 15.2512C11.3461 15.2512 12.6903 14.738 13.7153 13.713C15.1619 12.2665 15.5875 10.1855 14.9935 8.36583L13.6493 9.71003Z" fill="#FF671D"/>
<path d="M19 16.7492L17.3864 15.1356C19.2169 12.5091 19.4849 9.12573 18.1905 6.27703L16.9729 7.49463C17.2571 8.28661 17.4053 9.13111 17.4053 9.99852C17.4053 11.9771 16.6348 13.8358 15.2368 15.2353C13.8387 16.6334 11.9786 17.4038 10 17.4038C8.0214 17.4038 6.16268 16.6334 4.76324 15.2353C3.36516 13.8372 2.59473 11.9771 2.59473 9.99852C2.59473 8.01992 3.36516 6.16119 4.76324 4.76176C6.16133 3.36368 8.0214 2.59325 10 2.59325C10.8661 2.59325 11.7092 2.74141 12.4998 3.02426L13.7174 1.80666C12.5389 1.27194 11.2688 1.00391 9.99865 1.00391C7.69814 1.00525 5.39494 1.88343 3.63858 3.63979C0.509728 6.76865 0.167614 11.6296 2.61359 15.137L1 16.7492L3.24798 18.9972L4.86022 17.3849C6.39973 18.4584 8.19919 18.9958 9.99865 18.9958C11.7981 18.9958 13.5989 18.4584 15.1371 17.3849L16.7493 18.9972L18.9973 16.7492H19Z" fill="#FF671D"/>
<path d="M17.1532 2.8466L16.776 1L15.0304 2.74559L13.2849 4.49117L13.4734 5.41515L10.4214 8.46723C9.88932 8.32176 9.29669 8.4578 8.8778 8.87668C8.25688 9.49761 8.25688 10.5037 8.8778 11.1247C9.49872 11.7456 10.5049 11.7456 11.1258 11.1247C11.5447 10.7058 11.6807 10.1104 11.5339 9.57707L14.5846 6.52634L15.5086 6.71491L17.2542 4.96932L18.9998 3.22374L17.1532 2.8466Z" fill="#FF671D"/>
</svg>
