
<svg width="20" height="20" viewBox="0 0 20 20" fill="none" xmlns="http://www.w3.org/2000/svg">
<path fill-rule="evenodd" clip-rule="evenodd" d="M10.8138 14.3998C11.1116 14.102 11.1116 13.6279 10.8138 13.33L6.52844 9.04474C4.46177 6.97806 4.46177 3.61668 6.52844 1.55001C7.56178 0.51667 8.91727 0 10.2788 0C11.6404 0 12.9959 0.51667 14.0293 1.55001L15.8285 3.34923L15.8528 3.37354C15.9744 3.50119 16.0473 3.67746 16.0473 3.86589C16.0473 4.26099 15.7251 4.58316 15.33 4.58316C15.1416 4.58316 14.9653 4.51021 14.8377 4.38864L14.8255 4.37649L13.0141 2.56511C12.2847 1.83569 11.3183 1.43451 10.2849 1.43451C9.25159 1.43451 8.27904 1.83569 7.5557 2.56511C6.04825 4.07256 6.04825 6.52218 7.5557 8.02964L11.841 12.3149C12.2543 12.7283 12.4853 13.2814 12.4853 13.865C12.4853 14.4485 12.2543 15.0016 11.841 15.4149C11.4277 15.8283 10.8745 16.0593 10.291 16.0593C9.70747 16.0593 9.15433 15.8344 8.741 15.4149L5.98138 12.6553C5.82942 12.5216 5.73825 12.3332 5.73825 12.1204C5.73825 11.7253 6.06041 11.4032 6.4555 11.4032C6.66825 11.4032 6.86276 11.5004 6.99041 11.6463L9.75002 14.4059C9.89591 14.5579 10.0904 14.6308 10.2849 14.6308C10.4794 14.6308 10.6739 14.5579 10.8198 14.4059L10.8138 14.3998ZM5.56805 10.5157C5.56805 10.9108 5.24589 11.233 4.85079 11.233C4.45569 11.233 4.13353 10.9108 4.13353 10.5157C4.13353 10.1206 4.45569 9.79847 4.85079 9.79847C5.24589 9.79847 5.56805 10.1206 5.56805 10.5157ZM17.7857 5.0512C17.5 4.76551 17.0381 4.76551 16.7524 5.0512L14.9349 6.86865L14.0353 5.96904C13.7496 5.68335 13.2877 5.68335 13.002 5.96904C12.7163 6.25473 12.7163 6.71669 13.002 7.00238L14.4183 8.41866C14.5642 8.56454 14.7465 8.63141 14.9349 8.63141C15.1234 8.63141 15.3118 8.55846 15.4516 8.41866L17.7857 6.08453C18.0714 5.79885 18.0714 5.33689 17.7857 5.0512ZM9.74394 4.75943C9.4461 5.05727 9.4461 5.53747 9.74394 5.82924L14.0293 10.1145C16.0959 12.1812 16.0959 15.5426 14.0293 17.6093C12.9959 18.6426 11.6404 19.1593 10.2788 19.1593C8.91727 19.1593 7.56786 18.6426 6.52844 17.6093L2.24921 13.33C2.09725 13.1902 2 13.0018 2 12.783C2 12.3879 2.32216 12.0657 2.71726 12.0657C2.93608 12.0657 3.13059 12.1691 3.26432 12.321L7.53139 16.5881C8.2608 17.3175 9.22727 17.7187 10.2606 17.7187C11.2939 17.7187 12.2665 17.3175 12.9898 16.5881C14.4973 15.0806 14.4973 12.631 12.9898 11.1236L8.70453 6.83826C8.29119 6.42492 8.06021 5.87179 8.06021 5.28826C8.06021 4.70473 8.29119 4.15159 8.70453 3.73825C9.11786 3.32492 9.671 3.09394 10.2545 3.09394C10.8381 3.09394 11.3912 3.31884 11.8045 3.73825L12.3334 4.26707C12.4671 4.4008 12.5461 4.57707 12.5461 4.77766C12.5461 5.17276 12.224 5.49492 11.8289 5.49492C11.6222 5.49492 11.4398 5.40983 11.3061 5.27002L10.7894 4.75335C10.6436 4.60139 10.449 4.52845 10.2545 4.52845C10.06 4.52845 9.86551 4.60139 9.71963 4.75335L9.74394 4.75943Z" fill="#FF671D"/>
</svg>
