<svg width="20" height="20" viewBox="0 0 20 20" fill="none" xmlns="http://www.w3.org/2000/svg">
<path d="M1.70609 5.78713H1.36098C1.16455 5.78713 1 5.94641 1 6.14816C1 6.3446 1.15924 6.50918 1.36098 6.50918H1.70609C1.90253 6.50918 2.06707 6.34991 2.06707 6.14816C2.06707 5.95172 1.90784 5.78713 1.70609 5.78713ZM8.33186 11.0113H7.98675C7.79032 11.0113 7.62577 11.1706 7.62577 11.367C7.62577 11.5635 7.785 11.728 7.98144 11.728H8.32654C8.52298 11.728 8.68759 11.5688 8.68759 11.3723C8.68759 11.1759 8.5283 11.0113 8.33186 11.0113ZM8.03983 7.59224C8.03983 7.3958 7.88059 7.23122 7.67885 7.23122H6.47898C6.28254 7.23122 6.12325 7.39049 6.12325 7.59224C6.12325 7.78868 6.28254 7.94795 6.47898 7.94795H7.67885C7.87529 7.94795 8.03983 7.78867 8.03983 7.58693V7.59224ZM19.4067 5.34648L19.0404 3.29716C18.9395 2.52733 18.2652 1.96457 17.4901 2.00174H3.45281C2.92721 1.9805 2.48649 2.3893 2.46526 2.9149C2.46526 2.99985 2.46528 3.08479 2.48651 3.16443L2.86876 5.34117C2.86876 5.34117 2.86877 5.37302 2.87938 5.38895C2.92717 5.65441 2.78912 5.76059 2.66701 5.79776C2.48119 5.86677 2.38567 6.06852 2.44938 6.25434C2.50247 6.39769 2.6352 6.49325 2.78386 6.49325H18.4351C18.9607 6.50918 19.3961 6.10038 19.4173 5.57477C19.4173 5.49514 19.4173 5.4155 19.396 5.33586L19.4067 5.34648ZM14.6285 13.5597C14.4798 12.7633 14.0232 12.4713 13.5083 12.4713H9.8025C9.60606 12.4713 9.44145 12.6359 9.44145 12.8323C9.44145 13.0128 9.57954 13.1668 9.76005 13.188C9.87685 13.2093 10.0043 13.3633 10.0839 13.7455L10.4661 15.8638C10.6095 16.5222 11.1882 16.9947 11.8624 17L14.0764 16.9894C14.602 17.0106 15.0426 16.6018 15.0585 16.0762C15.0585 15.9966 15.0585 15.9169 15.0373 15.8373L14.6285 13.5544V13.5597ZM9.72816 11.7546H13.7524C13.7843 11.7546 13.8109 11.7493 13.8427 11.7387C14.2144 11.6643 14.2303 11.3617 14.1825 11.0591L13.6675 8.23995C13.5295 7.5073 13.0995 7.2206 12.542 7.2206H8.85214C8.6557 7.2206 8.49647 7.38518 8.49647 7.58162C8.49647 7.76213 8.62918 7.91079 8.80969 7.93202C8.9318 7.95326 9.06453 8.11784 9.14417 8.53726L9.53172 10.6875C9.5742 10.852 9.47863 11.0113 9.32466 11.0485H9.31403C9.12821 11.1175 9.0327 11.3245 9.09641 11.5104C9.1495 11.6537 9.28223 11.7493 9.43088 11.7493H9.71753L9.72816 11.7546Z" fill="#FF671D"/>
</svg>
