<svg width="362" height="95" viewBox="0 0 362 95" fill="none" xmlns="http://www.w3.org/2000/svg">
  <path  fill="#FFF" d="M0.680001 71V1.88H12.248V71H0.680001ZM60.5623 71V46.04C60.5623 44.408 60.4503 42.6 60.2263 40.616C60.0023 38.632 59.4743 36.728 58.6423 34.904C57.8423 33.048 56.6263 31.528 54.9943 30.344C53.3943 29.16 51.2183 28.568 48.4663 28.568C46.9943 28.568 45.5383 28.808 44.0983 29.288C42.6583 29.768 41.3463 30.6 40.1623 31.784C39.0103 32.936 38.0823 34.536 37.3783 36.584C36.6743 38.6 36.3223 41.192 36.3223 44.36L29.4583 41.432C29.4583 37.016 30.3063 33.016 32.0023 29.432C33.7303 25.848 36.2583 23 39.5863 20.888C42.9143 18.744 47.0103 17.672 51.8743 17.672C55.7143 17.672 58.8823 18.312 61.3783 19.592C63.8743 20.872 65.8583 22.504 67.3302 24.488C68.8022 26.472 69.8903 28.584 70.5943 30.824C71.2983 33.064 71.7463 35.192 71.9383 37.208C72.1623 39.192 72.2743 40.808 72.2743 42.056V71H60.5623ZM24.6103 71V19.16H34.9303V35.24H36.3223V71H24.6103ZM102.896 72.44C96.496 72.44 91.296 71 87.296 68.12C83.296 65.24 80.864 61.192 80 55.976L91.808 54.152C92.416 56.712 93.76 58.728 95.84 60.2C97.92 61.672 100.544 62.408 103.712 62.408C106.496 62.408 108.64 61.864 110.144 60.776C111.68 59.656 112.448 58.136 112.448 56.216C112.448 55.032 112.16 54.088 111.584 53.384C111.04 52.648 109.824 51.944 107.936 51.272C106.048 50.6 103.152 49.752 99.248 48.728C94.896 47.576 91.44 46.344 88.88 45.032C86.32 43.688 84.48 42.104 83.36 40.28C82.24 38.456 81.68 36.248 81.68 33.656C81.68 30.424 82.528 27.608 84.224 25.208C85.92 22.808 88.288 20.968 91.328 19.688C94.368 18.376 97.952 17.72 102.08 17.72C106.112 17.72 109.68 18.344 112.784 19.592C115.92 20.84 118.448 22.616 120.368 24.92C122.288 27.224 123.472 29.928 123.92 33.032L112.112 35.144C111.824 32.936 110.816 31.192 109.088 29.912C107.392 28.632 105.12 27.912 102.272 27.752C99.552 27.592 97.36 28.008 95.696 29C94.032 29.96 93.2 31.32 93.2 33.08C93.2 34.072 93.536 34.92 94.208 35.624C94.88 36.328 96.224 37.032 98.24 37.736C100.288 38.44 103.328 39.304 107.36 40.328C111.488 41.384 114.784 42.6 117.248 43.976C119.744 45.32 121.536 46.936 122.624 48.824C123.744 50.712 124.304 53 124.304 55.688C124.304 60.904 122.4 65 118.592 67.976C114.816 70.952 109.584 72.44 102.896 72.44ZM157.81 72.44C152.754 72.44 148.514 71.24 145.09 68.84C141.666 66.44 139.09 63.176 137.362 59.048C135.634 54.888 134.77 50.232 134.77 45.08C134.77 39.864 135.634 35.192 137.362 31.064C139.09 26.936 141.618 23.688 144.946 21.32C148.306 18.92 152.45 17.72 157.378 17.72C162.274 17.72 166.514 18.92 170.098 21.32C173.714 23.688 176.514 26.936 178.498 31.064C180.482 35.16 181.474 39.832 181.474 45.08C181.474 50.264 180.498 54.92 178.546 59.048C176.594 63.176 173.842 66.44 170.29 68.84C166.738 71.24 162.578 72.44 157.81 72.44ZM132.802 94.04V19.16H143.026V55.544H144.466V94.04H132.802ZM156.034 62.072C159.042 62.072 161.522 61.32 163.474 59.816C165.426 58.312 166.866 56.28 167.794 53.72C168.754 51.128 169.234 48.248 169.234 45.08C169.234 41.944 168.754 39.096 167.794 36.536C166.834 33.944 165.346 31.896 163.33 30.392C161.314 28.856 158.754 28.088 155.65 28.088C152.706 28.088 150.306 28.808 148.45 30.248C146.594 31.656 145.218 33.64 144.322 36.2C143.458 38.728 143.026 41.688 143.026 45.08C143.026 48.44 143.458 51.4 144.322 53.96C145.218 56.52 146.61 58.52 148.498 59.96C150.418 61.368 152.93 62.072 156.034 62.072ZM191.094 11.288V0.679998H202.662V11.288H191.094ZM191.094 71V19.16H202.662V71H191.094ZM215.12 71V19.16H225.344V31.784L224.096 30.152C224.736 28.424 225.584 26.856 226.64 25.448C227.728 24.008 229.024 22.824 230.528 21.896C231.808 21.032 233.216 20.36 234.752 19.88C236.32 19.368 237.92 19.064 239.552 18.968C241.184 18.84 242.768 18.904 244.304 19.16V29.96C242.768 29.512 240.992 29.368 238.976 29.528C236.992 29.688 235.2 30.248 233.6 31.208C232 32.072 230.688 33.176 229.664 34.52C228.672 35.864 227.936 37.4 227.456 39.128C226.976 40.824 226.736 42.664 226.736 44.648V71H215.12ZM274.174 72.44C268.926 72.44 264.318 71.304 260.35 69.032C256.382 66.76 253.278 63.608 251.038 59.576C248.83 55.544 247.726 50.904 247.726 45.656C247.726 39.992 248.814 35.08 250.99 30.92C253.166 26.728 256.19 23.48 260.062 21.176C263.934 18.872 268.414 17.72 273.502 17.72C278.878 17.72 283.438 18.984 287.182 21.512C290.958 24.008 293.758 27.544 295.582 32.12C297.406 36.696 298.094 42.088 297.646 48.296H286.174V44.072C286.142 38.44 285.15 34.328 283.198 31.736C281.246 29.144 278.174 27.848 273.982 27.848C269.246 27.848 265.726 29.32 263.422 32.264C261.118 35.176 259.966 39.448 259.966 45.08C259.966 50.328 261.118 54.392 263.422 57.272C265.726 60.152 269.086 61.592 273.502 61.592C276.35 61.592 278.798 60.968 280.846 59.72C282.926 58.44 284.526 56.6 285.646 54.2L297.07 57.656C295.086 62.328 292.014 65.96 287.854 68.552C283.726 71.144 279.166 72.44 274.174 72.44ZM256.318 48.296V39.56H291.982V48.296H256.318ZM300.676 71L324.1 36.056L301.348 1.88H315.508L331.252 26.216L346.852 1.88H361.108L338.356 36.056L361.684 71H347.524L331.252 45.896L314.932 71H300.676Z" />
</svg>
